# This file uses centimeters as units for non-parametric coordinates.

mtllib ceilingLight.mtl
g default
v 0.404509 -0.050000 -0.293893
v 0.154508 -0.050000 -0.475528
v -0.154509 -0.050000 -0.475528
v -0.404509 -0.050000 -0.293893
v -0.500000 -0.050000 0.000000
v -0.404509 -0.050000 0.293893
v -0.154508 -0.050000 0.475528
v 0.154509 -0.050000 0.475528
v 0.404509 -0.050000 0.293893
v 0.500000 -0.050000 0.000000
v 0.404509 0.050000 -0.293893
v 0.154508 0.050000 -0.475528
v -0.154509 0.050000 -0.475528
v -0.404509 0.050000 -0.293893
v -0.500000 0.050000 0.000000
v -0.404509 0.050000 0.293893
v -0.154508 0.050000 0.475528
v 0.154509 0.050000 0.475528
v 0.404509 0.050000 0.293893
v 0.500000 0.050000 0.000000
v 0.000000 0.311119 0.000000
v 0.348472 0.171965 -0.253180
v 0.133104 0.171965 -0.409654
v -0.133105 0.171965 -0.409654
v -0.348472 0.171965 -0.253180
v -0.430735 0.171965 0.000000
v -0.348472 0.171965 0.253180
v -0.133105 0.171965 0.409654
v 0.133105 0.171965 0.409654
v 0.348472 0.171965 0.253180
v 0.430735 0.171965 -0.000000
v 0.289375 0.275719 -0.210243
v 0.110531 0.275719 -0.340181
v -0.110531 0.275719 -0.340180
v -0.289375 0.275719 -0.210243
v -0.357687 0.275719 0.000000
v -0.289375 0.275719 0.210243
v -0.110531 0.275719 0.340180
v 0.110531 0.275719 0.340180
v 0.289375 0.275719 0.210243
v 0.357687 0.275719 -0.000000
v 0.218739 0.356633 -0.158923
v 0.083551 0.356633 -0.257143
v -0.083551 0.356633 -0.257143
v -0.218739 0.356633 -0.158923
v -0.270376 0.356633 -0.000000
v -0.218739 0.356633 0.158923
v -0.083551 0.356633 0.257143
v 0.083551 0.356633 0.257143
v 0.218739 0.356633 0.158923
v 0.270376 0.356633 -0.000000
v 0.130801 0.409786 -0.095032
v 0.049961 0.409786 -0.153765
v -0.049961 0.409786 -0.153765
v -0.130801 0.409786 -0.095032
v -0.161678 0.409786 -0.000000
v -0.130801 0.409786 0.095032
v -0.049961 0.409786 0.153765
v 0.049961 0.409786 0.153765
v 0.130801 0.409786 0.095032
v 0.161678 0.409786 -0.000000
v 0.061413 0.459213 -0.044619
v 0.023458 0.459213 -0.072195
v -0.023458 0.459213 -0.072195
v -0.061413 0.459213 -0.044619
v -0.075911 0.459213 -0.000000
v -0.061413 0.459213 0.044619
v -0.023458 0.459213 0.072195
v 0.023458 0.459213 0.072195
v 0.061413 0.459213 0.044619
v 0.075911 0.459213 -0.000000
v 0.061413 3.020340 -0.044619
v 0.023458 3.020340 -0.072195
v -0.000000 3.020340 -0.000000
v -0.023458 3.020340 -0.072195
v -0.061413 3.020340 -0.044621
v -0.075911 3.020340 0.000001
v -0.061413 3.020340 0.044621
v -0.023458 3.020340 0.072195
v 0.023458 3.020340 0.072197
v 0.061413 3.020340 0.044618
v 0.075911 3.020340 -0.000001
vt 0.626409 0.064409
vt 0.548284 0.007647
vt 0.451716 0.007647
vt 0.373591 0.064409
vt 0.343750 0.156250
vt 0.373591 0.248091
vt 0.451716 0.304853
vt 0.548284 0.304853
vt 0.626409 0.248091
vt 0.656250 0.156250
vt 0.375000 0.312500
vt 0.400000 0.312500
vt 0.425000 0.312500
vt 0.450000 0.312500
vt 0.475000 0.312500
vt 0.500000 0.312500
vt 0.525000 0.312500
vt 0.550000 0.312500
vt 0.575000 0.312500
vt 0.600000 0.312500
vt 0.625000 0.312500
vt 0.375000 0.688440
vt 0.400000 0.688440
vt 0.425000 0.688440
vt 0.450000 0.688440
vt 0.475000 0.688440
vt 0.500000 0.688440
vt 0.525000 0.688440
vt 0.550000 0.688440
vt 0.575000 0.688440
vt 0.600000 0.688440
vt 0.625000 0.688440
vt 0.626409 0.751909
vt 0.548284 0.695147
vt 0.451716 0.695147
vt 0.373591 0.751909
vt 0.343750 0.843750
vt 0.373591 0.935591
vt 0.451716 0.992353
vt 0.548284 0.992353
vt 0.626409 0.935591
vt 0.656250 0.843750
vt 0.500000 0.150000
vt 0.500000 0.837500
vt 0.626409 0.935591
vt 0.548284 0.992353
vt 0.451716 0.992353
vt 0.373591 0.935591
vt 0.343750 0.843750
vt 0.373591 0.751909
vt 0.451716 0.695147
vt 0.548284 0.695147
vt 0.626409 0.751909
vt 0.656250 0.843750
vt 0.626409 0.935591
vt 0.548284 0.992353
vt 0.451716 0.992353
vt 0.373591 0.935591
vt 0.343750 0.843750
vt 0.373591 0.751909
vt 0.451716 0.695147
vt 0.548284 0.695147
vt 0.626409 0.751909
vt 0.656250 0.843750
vt 0.626409 0.935591
vt 0.548284 0.992353
vt 0.451716 0.992353
vt 0.373591 0.935591
vt 0.343750 0.843750
vt 0.373591 0.751909
vt 0.451716 0.695147
vt 0.548284 0.695147
vt 0.626409 0.751909
vt 0.656250 0.843750
vt 0.626409 0.935591
vt 0.548284 0.992353
vt 0.451716 0.992353
vt 0.373591 0.935591
vt 0.343750 0.843750
vt 0.373591 0.751909
vt 0.451716 0.695147
vt 0.548284 0.695147
vt 0.626409 0.751909
vt 0.656250 0.843750
vt 0.626409 0.935591
vt 0.548284 0.992353
vt 0.451716 0.992353
vt 0.373591 0.935591
vt 0.343750 0.843750
vt 0.373591 0.751909
vt 0.451716 0.695147
vt 0.548284 0.695147
vt 0.626409 0.751909
vt 0.656250 0.843750
vt 0.626409 0.935591
vt 0.548284 0.992353
vt 0.451716 0.992353
vt 0.373591 0.935591
vt 0.343750 0.843750
vt 0.373591 0.751909
vt 0.451716 0.695147
vt 0.548284 0.695147
vt 0.626409 0.751909
vt 0.656250 0.843750
vn 0.587785 0.000000 -0.809017
vn 0.587785 0.000000 -0.809017
vn 0.566989 0.263648 -0.780393
vn 0.566989 0.263648 -0.780393
vn -0.000000 0.000000 -1.000000
vn -0.000000 0.000000 -1.000000
vn -0.000000 0.263648 -0.964619
vn -0.000000 0.263648 -0.964619
vn -0.587785 0.000000 -0.809017
vn -0.587785 0.000000 -0.809017
vn -0.566989 0.263648 -0.780393
vn -0.566989 0.263648 -0.780393
vn -0.951057 0.000000 -0.309017
vn -0.951057 0.000000 -0.309017
vn -0.917407 0.263648 -0.298084
vn -0.917407 0.263648 -0.298084
vn -0.951057 0.000000 0.309017
vn -0.951057 0.000000 0.309017
vn -0.917407 0.263648 0.298084
vn -0.917407 0.263648 0.298084
vn -0.587785 0.000000 0.809017
vn -0.587785 0.000000 0.809017
vn -0.566989 0.263648 0.780393
vn -0.566989 0.263648 0.780393
vn 0.000000 0.000000 1.000000
vn 0.000000 0.000000 1.000000
vn 0.000000 0.263648 0.964619
vn 0.000000 0.263648 0.964619
vn 0.587785 0.000000 0.809017
vn 0.587785 0.000000 0.809017
vn 0.566989 0.263648 0.780393
vn 0.566989 0.263648 0.780393
vn 0.951057 0.000000 0.309017
vn 0.951057 0.000000 0.309017
vn 0.917407 0.263648 0.298084
vn 0.917407 0.263648 0.298084
vn 0.951057 0.000000 -0.309017
vn 0.951057 0.000000 -0.309017
vn 0.917407 0.263648 -0.298084
vn 0.917407 0.263648 -0.298084
vn -0.180929 -0.810673 0.556842
vn -0.473678 -0.810673 0.344148
vn -0.000000 -1.000000 0.000000
vn 0.180929 -0.810673 0.556842
vn 0.473678 -0.810673 0.344147
vn 0.585499 -0.810673 -0.000000
vn 0.473678 -0.810673 -0.344148
vn 0.180929 -0.810673 -0.556842
vn -0.180929 -0.810673 -0.556842
vn -0.473678 -0.810673 -0.344148
vn -0.585499 -0.810673 -0.000000
vn 0.000000 1.000000 0.000004
vn 0.000000 1.000000 -0.000002
vn 0.000000 1.000000 0.000001
vn 0.000000 1.000000 0.000000
vn 0.000000 1.000000 -0.000002
vn 0.000000 1.000000 0.000000
vn 0.000000 1.000000 0.000004
vn 0.000000 1.000000 0.000000
vn 0.000000 1.000000 0.000002
vn 0.000000 1.000000 0.000002
vn 0.000000 1.000000 0.000004
vn 0.506742 0.506701 -0.697471
vn 0.506742 0.506701 -0.697471
vn -0.000000 0.506701 -0.862122
vn -0.000000 0.506701 -0.862122
vn -0.506743 0.506701 -0.697471
vn -0.506743 0.506701 -0.697471
vn -0.819927 0.506701 -0.266410
vn -0.819927 0.506701 -0.266410
vn -0.819927 0.506701 0.266410
vn -0.819927 0.506701 0.266410
vn -0.506742 0.506701 0.697471
vn -0.506742 0.506701 0.697471
vn 0.000000 0.506701 0.862122
vn 0.000000 0.506701 0.862122
vn 0.506743 0.506701 0.697471
vn 0.506743 0.506701 0.697471
vn 0.819927 0.506701 0.266410
vn 0.819927 0.506701 0.266410
vn 0.819927 0.506701 -0.266410
vn 0.819927 0.506701 -0.266410
vn 0.488405 0.556385 -0.672232
vn 0.488405 0.556385 -0.672232
vn -0.000000 0.556385 -0.830924
vn -0.000000 0.556386 -0.830924
vn -0.488405 0.556385 -0.672232
vn -0.488405 0.556385 -0.672232
vn -0.790256 0.556386 -0.256770
vn -0.790256 0.556386 -0.256770
vn -0.790256 0.556385 0.256770
vn -0.790256 0.556385 0.256770
vn -0.488405 0.556385 0.672232
vn -0.488405 0.556385 0.672232
vn 0.000000 0.556385 0.830924
vn 0.000000 0.556385 0.830924
vn 0.488405 0.556385 0.672232
vn 0.488405 0.556385 0.672232
vn 0.790256 0.556385 0.256770
vn 0.790256 0.556385 0.256770
vn 0.790256 0.556385 -0.256770
vn 0.790256 0.556385 -0.256770
vn 0.410210 0.716204 -0.564606
vn 0.410210 0.716204 -0.564606
vn 0.410210 0.716204 -0.564606
vn 0.410210 0.716204 -0.564606
vn -0.000000 0.716204 -0.697891
vn -0.000000 0.716204 -0.697891
vn -0.000000 0.716204 -0.697891
vn -0.000000 0.716204 -0.697891
vn -0.410210 0.716204 -0.564606
vn -0.410210 0.716204 -0.564606
vn -0.410210 0.716204 -0.564606
vn -0.410210 0.716204 -0.564606
vn -0.663734 0.716204 -0.215660
vn -0.663734 0.716204 -0.215660
vn -0.663734 0.716204 -0.215660
vn -0.663734 0.716204 -0.215660
vn -0.663734 0.716204 0.215660
vn -0.663734 0.716204 0.215660
vn -0.663734 0.716204 0.215660
vn -0.663734 0.716204 0.215660
vn -0.410210 0.716204 0.564606
vn -0.410210 0.716204 0.564606
vn -0.410210 0.716204 0.564606
vn -0.410210 0.716204 0.564606
vn 0.000000 0.716204 0.697891
vn 0.000000 0.716204 0.697891
vn 0.000000 0.716204 0.697891
vn 0.000000 0.716204 0.697891
vn 0.410210 0.716204 0.564606
vn 0.410210 0.716203 0.564606
vn 0.410210 0.716204 0.564606
vn 0.410210 0.716204 0.564606
vn 0.663734 0.716204 0.215660
vn 0.663734 0.716204 0.215660
vn 0.663734 0.716204 0.215660
vn 0.663734 0.716204 0.215660
vn 0.663734 0.716204 -0.215660
vn 0.663734 0.716204 -0.215660
vn 0.663734 0.716204 -0.215660
vn 0.663734 0.716204 -0.215660
vn 0.268770 0.889333 -0.369931
vn 0.268770 0.889333 -0.369931
vn 0.268770 0.889333 -0.369931
vn 0.268770 0.889333 -0.369931
vn -0.000000 0.889333 -0.457260
vn -0.000000 0.889333 -0.457259
vn -0.000000 0.889333 -0.457260
vn -0.000000 0.889333 -0.457260
vn -0.268770 0.889333 -0.369931
vn -0.268770 0.889333 -0.369931
vn -0.268770 0.889333 -0.369931
vn -0.268770 0.889333 -0.369931
vn -0.434880 0.889333 -0.141301
vn -0.434880 0.889333 -0.141301
vn -0.434880 0.889333 -0.141301
vn -0.434880 0.889333 -0.141301
vn -0.434880 0.889333 0.141301
vn -0.434880 0.889333 0.141301
vn -0.434880 0.889333 0.141301
vn -0.434880 0.889333 0.141301
vn -0.268770 0.889333 0.369931
vn -0.268770 0.889333 0.369931
vn -0.268770 0.889333 0.369931
vn -0.268770 0.889333 0.369931
vn 0.000000 0.889333 0.457259
vn 0.000000 0.889333 0.457259
vn 0.000000 0.889333 0.457259
vn 0.000000 0.889333 0.457259
vn 0.268770 0.889333 0.369931
vn 0.268770 0.889333 0.369931
vn 0.268770 0.889333 0.369931
vn 0.268770 0.889333 0.369931
vn 0.434880 0.889333 0.141301
vn 0.434880 0.889333 0.141301
vn 0.434880 0.889333 0.141301
vn 0.434880 0.889333 0.141301
vn 0.434880 0.889333 -0.141301
vn 0.434880 0.889333 -0.141301
vn 0.434880 0.889333 -0.141301
vn 0.434880 0.889333 -0.141301
vn 0.304609 0.855240 -0.419258
vn 0.304609 0.855241 -0.419258
vn 0.304609 0.855241 -0.419258
vn 0.304609 0.855240 -0.419258
vn -0.000000 0.855240 -0.518232
vn -0.000000 0.855240 -0.518232
vn -0.000000 0.855240 -0.518232
vn -0.000000 0.855240 -0.518232
vn -0.304609 0.855240 -0.419258
vn -0.304609 0.855241 -0.419258
vn -0.304609 0.855240 -0.419258
vn -0.304609 0.855240 -0.419258
vn -0.492868 0.855240 -0.160142
vn -0.492868 0.855240 -0.160142
vn -0.492868 0.855240 -0.160142
vn -0.492868 0.855240 -0.160142
vn -0.492868 0.855240 0.160143
vn -0.492868 0.855240 0.160143
vn -0.492868 0.855240 0.160143
vn -0.492868 0.855240 0.160143
vn -0.304609 0.855240 0.419258
vn -0.304609 0.855241 0.419258
vn -0.304609 0.855240 0.419258
vn -0.304609 0.855241 0.419258
vn 0.000000 0.855240 0.518232
vn 0.000000 0.855240 0.518232
vn 0.000000 0.855240 0.518232
vn 0.000000 0.855240 0.518232
vn 0.304609 0.855240 0.419258
vn 0.304609 0.855240 0.419258
vn 0.304609 0.855240 0.419258
vn 0.304609 0.855240 0.419258
vn 0.492868 0.855240 0.160142
vn 0.492868 0.855240 0.160142
vn 0.492868 0.855240 0.160142
vn 0.492868 0.855240 0.160142
vn 0.492868 0.855240 -0.160142
vn 0.492868 0.855240 -0.160142
vn 0.492868 0.855240 -0.160142
vn 0.492868 0.855240 -0.160142
vn 0.587785 0.000000 -0.809017
vn 0.587785 0.000000 -0.809017
vn 0.587785 0.000000 -0.809017
vn 0.587785 0.000000 -0.809017
vn 0.000000 0.000000 -1.000000
vn 0.000000 0.000000 -1.000000
vn 0.000000 0.000000 -1.000000
vn 0.000000 0.000000 -1.000000
vn -0.587776 -0.000000 -0.809024
vn -0.587776 -0.000000 -0.809024
vn -0.587776 -0.000000 -0.809024
vn -0.587776 -0.000000 -0.809024
vn -0.951060 0.000000 -0.309007
vn -0.951060 0.000000 -0.309007
vn -0.951060 0.000000 -0.309007
vn -0.951060 0.000000 -0.309007
vn -0.951057 -0.000000 0.309016
vn -0.951057 -0.000000 0.309016
vn -0.951057 -0.000000 0.309016
vn -0.951057 -0.000000 0.309016
vn -0.587771 -0.000000 0.809028
vn -0.587771 -0.000000 0.809028
vn -0.587771 -0.000000 0.809028
vn -0.587771 -0.000000 0.809028
vn -0.000022 -0.000000 1.000000
vn -0.000022 -0.000000 1.000000
vn -0.000022 -0.000000 1.000000
vn -0.000022 -0.000000 1.000000
vn 0.587800 -0.000000 0.809006
vn 0.587800 -0.000000 0.809006
vn 0.587800 -0.000000 0.809006
vn 0.587800 -0.000000 0.809006
vn 0.951058 0.000000 0.309014
vn 0.951058 0.000000 0.309014
vn 0.951058 0.000000 0.309014
vn 0.951058 0.000000 0.309014
vn 0.951055 -0.000000 -0.309020
vn 0.951056 -0.000000 -0.309020
vn 0.951056 -0.000000 -0.309020
vn 0.951055 -0.000000 -0.309020
s 1
g pCylinder1
usemtl initialShadingGroup
f 1/11/1 2/12/2 12/23/3 11/22/4
s 2
f 2/12/5 3/13/6 13/24/7 12/23/8
s 3
f 3/13/9 4/14/10 14/25/11 13/24/12
s 4
f 4/14/13 5/15/14 15/26/15 14/25/16
s 5
f 5/15/17 6/16/18 16/27/19 15/26/20
s 6
f 6/16/21 7/17/22 17/28/23 16/27/24
s 7
f 7/17/25 8/18/26 18/29/27 17/28/28
s 8
f 8/18/29 9/19/30 19/30/31 18/29/32
s 9
f 9/19/33 10/20/34 20/31/35 19/30/36
s 10
f 10/20/37 1/21/38 11/32/39 20/31/40
s 11
f 2/2/41 1/1/42 21/43/43
f 3/3/44 2/2/41 21/43/43
f 4/4/45 3/3/44 21/43/43
f 5/5/46 4/4/45 21/43/43
f 6/6/47 5/5/46 21/43/43
f 7/7/48 6/6/47 21/43/43
f 8/8/49 7/7/48 21/43/43
f 9/9/50 8/8/49 21/43/43
f 10/10/51 9/9/50 21/43/43
f 1/1/42 10/10/51 21/43/43
s 12
f 72/95/52 73/96/53 74/44/54
f 73/96/53 75/97/55 74/44/54
f 75/97/55 76/98/56 74/44/54
f 76/98/56 77/99/57 74/44/54
f 77/99/57 78/100/58 74/44/54
f 78/100/58 79/101/59 74/44/54
f 79/101/59 80/102/60 74/44/54
f 80/102/60 81/103/61 74/44/54
f 81/103/61 82/104/62 74/44/54
f 82/104/62 72/95/52 74/44/54
s 1
f 11/41/4 12/40/3 23/46/63 22/45/64
s 2
f 12/40/8 13/39/7 24/47/65 23/46/66
s 3
f 13/39/12 14/38/11 25/48/67 24/47/68
s 4
f 14/38/16 15/37/15 26/49/69 25/48/70
s 5
f 15/37/20 16/36/19 27/50/71 26/49/72
s 6
f 16/36/24 17/35/23 28/51/73 27/50/74
s 7
f 17/35/28 18/34/27 29/52/75 28/51/76
s 8
f 18/34/32 19/33/31 30/53/77 29/52/78
s 9
f 19/33/36 20/42/35 31/54/79 30/53/80
s 10
f 20/42/40 11/41/39 22/45/81 31/54/82
s 1
f 22/45/64 23/46/63 33/56/83 32/55/84
s 2
f 23/46/66 24/47/65 34/57/85 33/56/86
s 3
f 24/47/68 25/48/67 35/58/87 34/57/88
s 4
f 25/48/70 26/49/69 36/59/89 35/58/90
s 5
f 26/49/72 27/50/71 37/60/91 36/59/92
s 6
f 27/50/74 28/51/73 38/61/93 37/60/94
s 7
f 28/51/76 29/52/75 39/62/95 38/61/96
s 8
f 29/52/78 30/53/77 40/63/97 39/62/98
s 9
f 30/53/80 31/54/79 41/64/99 40/63/100
s 10
f 31/54/82 22/45/81 32/55/101 41/64/102
s off
f 32/55/103 33/56/104 43/66/105 42/65/106
f 33/56/107 34/57/108 44/67/109 43/66/110
f 34/57/111 35/58/112 45/68/113 44/67/114
f 35/58/115 36/59/116 46/69/117 45/68/118
f 36/59/119 37/60/120 47/70/121 46/69/122
f 37/60/123 38/61/124 48/71/125 47/70/126
f 38/61/127 39/62/128 49/72/129 48/71/130
f 39/62/131 40/63/132 50/73/133 49/72/134
f 40/63/135 41/64/136 51/74/137 50/73/138
f 41/64/139 32/55/140 42/65/141 51/74/142
f 42/65/143 43/66/144 53/76/145 52/75/146
f 43/66/147 44/67/148 54/77/149 53/76/150
f 44/67/151 45/68/152 55/78/153 54/77/154
f 45/68/155 46/69/156 56/79/157 55/78/158
f 46/69/159 47/70/160 57/80/161 56/79/162
f 47/70/163 48/71/164 58/81/165 57/80/166
f 48/71/167 49/72/168 59/82/169 58/81/170
f 49/72/171 50/73/172 60/83/173 59/82/174
f 50/73/175 51/74/176 61/84/177 60/83/178
f 51/74/179 42/65/180 52/75/181 61/84/182
f 52/75/183 53/76/184 63/86/185 62/85/186
f 53/76/187 54/77/188 64/87/189 63/86/190
f 54/77/191 55/78/192 65/88/193 64/87/194
f 55/78/195 56/79/196 66/89/197 65/88/198
f 56/79/199 57/80/200 67/90/201 66/89/202
f 57/80/203 58/81/204 68/91/205 67/90/206
f 58/81/207 59/82/208 69/92/209 68/91/210
f 59/82/211 60/83/212 70/93/213 69/92/214
f 60/83/215 61/84/216 71/94/217 70/93/218
f 61/84/219 52/75/220 62/85/221 71/94/222
f 62/85/223 63/86/224 73/96/225 72/95/226
f 63/86/227 64/87/228 75/97/229 73/96/230
f 64/87/231 65/88/232 76/98/233 75/97/234
f 65/88/235 66/89/236 77/99/237 76/98/238
f 66/89/239 67/90/240 78/100/241 77/99/242
f 67/90/243 68/91/244 79/101/245 78/100/246
f 68/91/247 69/92/248 80/102/249 79/101/250
f 69/92/251 70/93/252 81/103/253 80/102/254
f 70/93/255 71/94/256 82/104/257 81/103/258
f 71/94/259 62/85/260 72/95/261 82/104/262
