# This file uses centimeters as units for non-parametric coordinates.

mtllib rafter.mtl
g default
v -1.046713 -3.181980 -2.474873
v 1.046713 -3.181980 -2.474873
v -1.046713 -2.474874 -1.767767
v 1.046713 -2.474874 -1.767767
v -1.046713 -1.767767 -1.060660
v 1.046713 -1.767767 -1.060660
v -1.046713 -1.060660 -0.353553
v 1.046713 -1.060660 -0.353553
v -1.046713 -0.353553 0.353553
v 1.046713 -0.353553 0.353553
v -1.046713 0.353553 1.060660
v 1.046713 0.353553 1.060660
v -1.046713 1.060660 1.767767
v 1.046713 1.060660 1.767767
v -1.046713 1.767767 2.474874
v 1.046713 1.767767 2.474874
v -1.046713 2.474873 3.181980
v 1.046713 2.474873 3.181980
v -1.046713 3.181980 2.474873
v 1.046713 3.181980 2.474873
v -1.046713 2.474874 1.767767
v 1.046713 2.474874 1.767767
v -1.046713 1.767767 1.060660
v 1.046713 1.767767 1.060660
v -1.046713 1.060660 0.353553
v 1.046713 1.060660 0.353553
v -1.046713 0.353553 -0.353553
v 1.046713 0.353553 -0.353553
v -1.046713 -0.353553 -1.060660
v 1.046713 -0.353553 -1.060660
v -1.046713 -1.060660 -1.767767
v 1.046713 -1.060660 -1.767767
v -1.046713 -1.767767 -2.474874
v 1.046713 -1.767767 -2.474874
v -1.046713 -2.474873 -3.181980
v 1.046713 -2.474873 -3.181980
v -1.046713 2.345643 -6.588284
v 1.046713 2.345643 -6.588284
v 1.046713 1.638536 -7.295390
v -1.046713 1.638536 -7.295390
v -1.046713 3.117033 -7.359674
v 1.046713 3.117033 -7.359674
v 1.046713 2.409926 -8.066780
v -1.046713 2.409926 -8.066780
v -1.046713 -2.429517 -11.363442
v 1.046713 -2.429517 -11.363442
v -1.046713 -1.658127 -12.134832
v 1.046713 -1.658127 -12.134832
v -1.046713 -3.423071 -12.356996
v 1.046713 -3.423071 -12.356996
v -1.046713 -2.651681 -13.128386
v 1.046713 -2.651681 -13.128386
v -1.046713 -2.612597 6.855238
v 1.046713 -2.612597 6.855238
v 1.046713 -1.905490 7.562344
v -1.046713 -1.905490 7.562344
v -1.046713 -3.603541 7.846181
v 1.046713 -3.603541 7.846181
v 1.046713 -2.896435 8.553288
v -1.046713 -2.896435 8.553288
v -1.046713 2.673068 12.140907
v 1.046713 2.673068 12.140907
v -1.046713 1.682123 13.131849
v 1.046713 1.682123 13.131849
v -1.046713 3.793679 13.261519
v 1.046713 3.793679 13.261519
v -1.046713 2.802736 14.252465
v 1.046713 2.802736 14.252465
v -1.046713 2.099347 -15.892307
v 1.046713 2.099347 -15.892307
v 1.046713 1.105793 -16.885862
v -1.046713 1.105793 -16.885862
v -1.046713 3.258840 -17.051798
v 1.046713 3.258840 -17.051798
v 1.046713 2.265286 -18.045355
v -1.046713 2.265286 -18.045355
v -1.046713 -3.810143 -21.801797
v 1.046713 -3.810143 -21.801797
v -1.046713 -2.650650 -22.961289
v 1.046713 -2.650650 -22.961289
vt 0.375000 0.000000
vt 0.625000 0.000000
vt 0.375000 0.031250
vt 0.625000 0.031250
vt 0.375000 0.062500
vt 0.625000 0.062500
vt 0.375000 0.093750
vt 0.625000 0.093750
vt 0.375000 0.125000
vt 0.625000 0.125000
vt 0.375000 0.156250
vt 0.625000 0.156250
vt 0.375000 0.187500
vt 0.625000 0.187500
vt 0.375000 0.218750
vt 0.625000 0.218750
vt 0.375000 0.250000
vt 0.625000 0.250000
vt 0.375000 0.500000
vt 0.625000 0.500000
vt 0.375000 0.531250
vt 0.625000 0.531250
vt 0.375000 0.562500
vt 0.625000 0.562500
vt 0.375000 0.593750
vt 0.625000 0.593750
vt 0.375000 0.625000
vt 0.625000 0.625000
vt 0.375000 0.656250
vt 0.625000 0.656250
vt 0.375000 0.687500
vt 0.625000 0.687500
vt 0.375000 0.718750
vt 0.625000 0.718750
vt 0.375000 0.750000
vt 0.625000 0.750000
vt 0.375000 1.000000
vt 0.625000 1.000000
vt 0.875000 0.000000
vt 0.875000 0.031250
vt 0.875000 0.062500
vt 0.875000 0.093750
vt 0.875000 0.125000
vt 0.875000 0.156250
vt 0.875000 0.187500
vt 0.875000 0.218750
vt 0.875000 0.250000
vt 0.125000 0.000000
vt 0.125000 0.031250
vt 0.125000 0.062500
vt 0.125000 0.093750
vt 0.125000 0.125000
vt 0.125000 0.156250
vt 0.125000 0.187500
vt 0.125000 0.218750
vt 0.125000 0.250000
vt 0.375000 0.718750
vt 0.625000 0.718750
vt 0.625000 0.750000
vt 0.375000 0.750000
vt 0.375000 0.718750
vt 0.625000 0.718750
vt 0.625000 0.750000
vt 0.375000 0.750000
vt 0.625000 0.750000
vt 0.375000 0.750000
vt 0.375000 0.750000
vt 0.625000 0.750000
vt 0.625000 0.750000
vt 0.375000 0.750000
vt 0.375000 0.750000
vt 0.625000 0.750000
vt 0.375000 0.218750
vt 0.625000 0.218750
vt 0.625000 0.250000
vt 0.375000 0.250000
vt 0.375000 0.218750
vt 0.625000 0.218750
vt 0.625000 0.250000
vt 0.375000 0.250000
vt 0.625000 0.250000
vt 0.375000 0.250000
vt 0.375000 0.250000
vt 0.625000 0.250000
vt 0.625000 0.250000
vt 0.375000 0.250000
vt 0.375000 0.250000
vt 0.625000 0.250000
vt 0.375000 0.750000
vt 0.625000 0.750000
vt 0.625000 0.750000
vt 0.375000 0.750000
vt 0.375000 0.750000
vt 0.625000 0.750000
vt 0.625000 0.750000
vt 0.375000 0.750000
vt 0.625000 0.750000
vt 0.375000 0.750000
vt 0.375000 0.750000
vt 0.625000 0.750000
vn 0.000000 -0.707107 0.707107
vn 0.000000 -0.707107 0.707107
vn 0.000000 -0.707107 0.707107
vn 0.000000 -0.707107 0.707107
vn 0.000000 -0.707107 0.707107
vn 0.000000 -0.707107 0.707107
vn 0.000000 -0.707107 0.707107
vn 0.000000 -0.707107 0.707107
vn 0.000000 -0.707107 0.707107
vn 0.000000 -0.707107 0.707107
vn 0.000000 -0.707107 0.707107
vn 0.000000 -0.707107 0.707107
vn 0.000000 -0.707107 0.707107
vn 0.000000 -0.707107 0.707107
vn 0.000000 -0.707107 0.707107
vn 0.000000 -0.707107 0.707107
vn 0.000000 -0.707107 0.707107
vn 0.000000 -0.707107 0.707107
vn 0.000000 -0.707107 0.707106
vn 0.000000 -0.707107 0.707106
vn 0.000000 0.707107 0.707107
vn 0.000000 0.707107 0.707107
vn 0.000000 0.707107 0.707107
vn 0.000000 0.707107 0.707107
vn 0.000000 0.707107 -0.707107
vn 0.000000 0.707107 -0.707107
vn 0.000000 0.707107 -0.707107
vn 0.000000 0.707107 -0.707107
vn 0.000000 0.707107 -0.707107
vn 0.000000 0.707107 -0.707107
vn 0.000000 0.707107 -0.707107
vn 0.000000 0.707107 -0.707107
vn 0.000000 0.707107 -0.707107
vn 0.000000 0.707107 -0.707107
vn 0.000000 0.707107 -0.707107
vn 0.000000 0.707107 -0.707107
vn 0.000000 0.707107 -0.707107
vn 0.000000 0.707107 -0.707107
vn 0.000000 0.707107 -0.707107
vn 0.000000 0.707107 -0.707107
vn 0.000000 0.707106 -0.707107
vn 0.000000 0.707106 -0.707107
vn 0.000000 0.707107 -0.707107
vn 0.000000 0.707107 -0.707107
vn 0.000000 -0.707107 -0.707107
vn 0.000000 -0.707107 -0.707107
vn 0.000000 -0.707107 -0.707107
vn 0.000000 -0.707107 -0.707107
vn 1.000000 0.000000 0.000000
vn 1.000000 0.000000 0.000000
vn 1.000000 -0.000000 -0.000000
vn 1.000000 -0.000000 -0.000000
vn 1.000000 -0.000000 -0.000000
vn 1.000000 -0.000000 -0.000000
vn 1.000000 -0.000000 -0.000000
vn 1.000000 -0.000000 -0.000000
vn 1.000000 -0.000000 -0.000000
vn 1.000000 -0.000000 -0.000000
vn 1.000000 -0.000000 -0.000000
vn 1.000000 -0.000000 -0.000000
vn 1.000000 -0.000000 -0.000000
vn 1.000000 -0.000000 -0.000000
vn 1.000000 -0.000000 -0.000000
vn 1.000000 -0.000000 -0.000000
vn 1.000000 0.000000 0.000000
vn 1.000000 0.000000 0.000000
vn -1.000000 0.000000 0.000000
vn -1.000000 0.000000 0.000000
vn -1.000000 -0.000000 -0.000000
vn -1.000000 -0.000000 -0.000000
vn -1.000000 -0.000000 -0.000000
vn -1.000000 -0.000000 -0.000000
vn -1.000000 -0.000000 -0.000000
vn -1.000000 -0.000000 -0.000000
vn -1.000000 -0.000000 -0.000000
vn -1.000000 -0.000000 -0.000000
vn -1.000000 -0.000000 -0.000000
vn -1.000000 -0.000000 -0.000000
vn -1.000000 -0.000000 -0.000000
vn -1.000000 -0.000000 -0.000000
vn -1.000000 -0.000000 -0.000000
vn -1.000000 -0.000000 -0.000000
vn -1.000000 0.000000 0.000000
vn -1.000000 0.000000 0.000000
vn 0.000000 0.707107 0.707107
vn 0.000000 0.707107 0.707107
vn 0.000000 0.707107 0.707107
vn 0.000000 0.707107 0.707107
vn 1.000000 0.000000 0.000000
vn 1.000000 0.000000 0.000000
vn 0.000000 -0.707107 -0.707107
vn 0.000000 -0.707107 -0.707107
vn -1.000000 0.000000 0.000000
vn -1.000000 0.000000 0.000000
vn 0.000000 0.707107 0.707107
vn 0.000000 0.707107 0.707107
vn 1.000000 0.000000 0.000000
vn 1.000000 0.000000 0.000000
vn 0.000000 -0.707107 -0.707107
vn 0.000000 -0.707107 -0.707107
vn 0.000000 -0.707107 -0.707107
vn 0.000000 -0.707107 -0.707107
vn -1.000000 0.000000 0.000000
vn -1.000000 0.000000 0.000000
vn 0.000000 -0.707107 0.707107
vn 0.000000 -0.707107 0.707107
vn 0.000000 -0.707107 0.707107
vn 0.000000 -0.707107 0.707107
vn -1.000000 0.000000 0.000000
vn -1.000000 0.000000 0.000000
vn 0.000000 0.707107 -0.707107
vn 0.000000 0.707107 -0.707107
vn 1.000000 0.000000 0.000000
vn 1.000000 0.000000 0.000000
vn 0.000000 -0.707107 0.707107
vn 0.000000 -0.707107 0.707107
vn -1.000000 0.000000 0.000000
vn -1.000000 0.000000 0.000000
vn 0.000000 0.707108 -0.707106
vn 0.000000 0.707108 -0.707106
vn 0.000000 0.707107 -0.707107
vn 0.000000 0.707107 -0.707107
vn 1.000000 0.000000 0.000000
vn 1.000000 0.000000 0.000000
vn 0.000000 -0.707107 -0.707107
vn 0.000000 -0.707107 -0.707107
vn 0.000000 -0.707107 -0.707107
vn 0.000000 -0.707107 -0.707107
vn 1.000000 0.000000 0.000000
vn 1.000000 0.000000 0.000000
vn 0.000000 0.707107 0.707107
vn 0.000000 0.707107 0.707107
vn -1.000000 0.000000 0.000000
vn -1.000000 0.000000 0.000000
vn 0.000000 -0.707107 -0.707107
vn 0.000000 -0.707107 -0.707107
vn 1.000000 0.000000 0.000000
vn 1.000000 0.000000 0.000000
vn 0.000000 0.707108 0.707106
vn 0.000000 0.707108 0.707106
vn 0.000000 0.707108 0.707106
vn 0.000000 0.707108 0.707106
vn -1.000000 0.000000 0.000000
vn -1.000000 0.000000 0.000000
vn 0.000000 0.707107 -0.707106
vn 0.000000 0.707107 -0.707106
vn 0.000000 0.707107 -0.707106
vn 0.000000 0.707107 -0.707106
vn -1.000000 0.000000 0.000000
vn -1.000000 0.000000 0.000000
vn 0.000000 -0.707107 0.707106
vn 0.000000 -0.707107 0.707106
vn 1.000000 0.000000 0.000000
vn 1.000000 0.000000 0.000000
vn 0.000000 0.707107 -0.707107
vn 0.000000 0.707107 -0.707107
vn -1.000000 0.000000 0.000000
vn -1.000000 0.000000 0.000000
vn 0.000000 -0.707108 0.707106
vn 0.000000 -0.707108 0.707106
vn 1.000000 0.000000 0.000000
vn 1.000000 0.000000 0.000000
vn 0.000000 0.707107 0.707107
vn 0.000000 0.707107 0.707107
vn 0.000000 0.707107 0.707107
vn 0.000000 0.707107 0.707107
vn 1.000000 0.000000 0.000000
vn 1.000000 0.000000 0.000000
vn 0.000000 -0.707107 -0.707107
vn 0.000000 -0.707107 -0.707107
vn -1.000000 0.000000 0.000000
vn -1.000000 0.000000 0.000000
vn 0.000000 0.707106 0.707108
vn 0.000000 0.707106 0.707108
vn 1.000000 0.000000 0.000000
vn 1.000000 0.000000 0.000000
vn 0.000000 -0.707107 -0.707107
vn 0.000000 -0.707107 -0.707107
vn 0.000000 -0.707107 -0.707107
vn 0.000000 -0.707107 -0.707107
vn -1.000000 0.000000 0.000000
vn -1.000000 0.000000 0.000000
vn 0.000000 -0.707107 0.707107
vn 0.000000 -0.707107 0.707107
vn 0.000000 -0.707107 0.707107
vn 0.000000 -0.707107 0.707107
vn -1.000000 0.000000 0.000000
vn -1.000000 0.000000 0.000000
vn 0.000000 0.707107 -0.707107
vn 0.000000 0.707107 -0.707107
vn 1.000000 0.000000 0.000000
vn 1.000000 0.000000 0.000000
s 1
g pCube1
usemtl initialShadingGroup
f 1/1/1 2/2/2 4/4/3 3/3/4
f 3/3/4 4/4/3 6/6/5 5/5/6
f 5/5/6 6/6/5 8/8/7 7/7/8
f 7/7/8 8/8/7 10/10/9 9/9/10
f 9/9/10 10/10/9 12/12/11 11/11/12
f 11/11/12 12/12/11 14/14/13 13/13/14
f 13/13/14 14/14/13 16/16/15 15/15/16
s 2
f 57/77/17 58/78/18 59/79/19 60/80/20
s 3
f 17/17/21 18/18/22 20/20/23 19/19/24
s 4
f 19/19/25 20/20/26 22/22/27 21/21/28
f 21/21/28 22/22/27 24/24/29 23/23/30
f 23/23/30 24/24/29 26/26/31 25/25/32
f 25/25/32 26/26/31 28/28/33 27/27/34
f 27/27/34 28/28/33 30/30/35 29/29/36
f 29/29/36 30/30/35 32/32/37 31/31/38
f 31/31/38 32/32/37 34/34/39 33/33/40
s 5
f 41/61/41 42/62/42 43/63/43 44/64/44
s 6
f 35/35/45 36/36/46 2/38/47 1/37/48
s 7
f 2/2/49 36/39/50 34/40/51 4/4/52
f 4/4/52 34/40/51 32/41/53 6/6/54
f 6/6/54 32/41/53 30/42/55 8/8/56
f 8/8/56 30/42/55 28/43/57 10/10/58
f 10/10/58 28/43/57 26/44/59 12/12/60
f 12/12/60 26/44/59 24/45/61 14/14/62
f 14/14/62 24/45/61 22/46/63 16/16/64
f 16/16/64 22/46/63 20/47/65 18/18/66
s 8
f 35/48/67 1/1/68 3/3/69 33/49/70
f 33/49/70 3/3/69 5/5/71 31/50/72
f 31/50/72 5/5/71 7/7/73 29/51/74
f 29/51/74 7/7/73 9/9/75 27/52/76
f 27/52/76 9/9/75 11/11/77 25/53/78
f 25/53/78 11/11/77 13/13/79 23/54/80
f 23/54/80 13/13/79 15/15/81 21/55/82
f 21/55/82 15/15/81 17/17/83 19/56/84
s 9
f 33/33/85 34/34/86 38/58/87 37/57/88
s 7
f 34/34/51 36/36/50 39/59/89 38/58/90
s 6
f 36/36/46 35/35/45 40/60/91 39/59/92
s 8
f 35/35/67 33/33/70 37/57/93 40/60/94
s 9
f 37/57/88 38/58/87 42/62/95 41/61/96
s 7
f 38/58/90 39/59/89 43/63/97 42/62/98
s 10
f 50/69/99 49/70/100 51/71/101 52/72/102
s 8
f 40/60/94 37/57/93 41/61/103 44/64/104
s 11
f 39/59/105 40/60/106 45/66/107 46/65/108
s 8
f 40/60/94 44/64/104 47/67/109 45/66/110
s 5
f 44/64/44 43/63/43 48/68/111 47/67/112
s 7
f 43/63/97 39/59/89 46/65/113 48/68/114
s 11
f 46/65/108 45/66/107 49/70/115 50/69/116
s 8
f 45/66/110 47/67/109 51/71/117 49/70/118
s 12
f 73/93/119 74/94/120 75/95/121 76/96/122
s 7
f 48/68/114 46/65/113 50/69/123 52/72/124
s 13
f 15/15/125 16/16/126 54/74/127 53/73/128
s 7
f 16/16/64 18/18/66 55/75/129 54/74/130
s 3
f 18/18/22 17/17/21 56/76/131 55/75/132
s 8
f 17/17/83 15/15/81 53/73/133 56/76/134
s 13
f 53/73/128 54/74/127 58/78/135 57/77/136
s 7
f 54/74/130 55/75/129 59/79/137 58/78/138
s off
f 66/85/139 65/86/140 67/87/141 68/88/142
s 8
f 56/76/134 53/73/133 57/77/143 60/80/144
s 14
f 55/75/145 56/76/146 61/82/147 62/81/148
s 8
f 56/76/134 60/80/144 63/83/149 61/82/150
s 2
f 60/80/20 59/79/19 64/84/151 63/83/152
s 7
f 59/79/137 55/75/129 62/81/153 64/84/154
s 14
f 62/81/148 61/82/147 65/86/155 66/85/156
s 8
f 61/82/150 63/83/149 67/87/157 65/86/158
s 2
f 63/83/152 64/84/151 68/88/159 67/87/160
s 7
f 64/84/154 62/81/153 66/85/161 68/88/162
s 15
f 47/67/163 48/68/164 70/90/165 69/89/166
s 7
f 48/68/114 52/72/124 71/91/167 70/90/168
s 10
f 52/72/102 51/71/101 72/92/169 71/91/170
s 8
f 51/71/117 47/67/109 69/89/171 72/92/172
s 15
f 69/89/166 70/90/165 74/94/173 73/93/174
s 7
f 70/90/168 71/91/167 75/95/175 74/94/176
s off
f 78/97/177 77/98/178 79/99/179 80/100/180
s 8
f 72/92/172 69/89/171 73/93/181 76/96/182
s off
f 71/91/183 72/92/184 77/98/185 78/97/186
s 8
f 72/92/172 76/96/182 79/99/187 77/98/188
s 12
f 76/96/122 75/95/121 80/100/189 79/99/190
s 7
f 75/95/175 71/91/167 78/97/191 80/100/192
